<svg xmlns="http://www.w3.org/2000/svg" width="13" height="13" viewBox="13 9 35 42">
  <path d="m48 39.3882699c0 .5589601-.4019746 1.2510059-.8843441 1.5171773l-17.2313118 9.8749613c-.4823695.2927887-1.2863187.2927887-1.7686882 0l-17.2313118-9.8749613c-.4823695-.2927886-.8843441-.9582172-.8843441-1.5171773v-19.7765398c0-.5589601.4019746-1.2510059.8843441-1.5171773l17.2313118-9.87496134c.4823695-.29278861 1.2863187-.29278861 1.7686882 0l17.2313118 9.87496134c.4823695.2927886.8843441.9582172.8843441 1.5171773z" fill="#fff"/>
  <g transform="translate(14 20)">
    <path d="m23.0029412 9.12820513-4.4205883 6.30769227-2.2764705-3.3846153 2.6205882-3.79487184c.4764706-.66666667 1.5352941-2.53846154.317647-5.07692308-.9794117-2.05128205-3.0970588-3.05128205-4.95-3.05128205-1.8529411 0-3.8911764.92307692-4.94999995 3.05128205-1.21764706 2.43589744-.15882353 4.35897436.29117647 5 0 0 1.45588238 2.07692312 2.67352938 3.82051282l1.9852941 2.7692308 2.9647059 4.3846154c.0264706.025641.5029412.7179487 1.3235294.7179487.7941177 0 1.2705883-.6923077 1.35-.7692308l6.9617647-9.97435897zm-8.7088236.15384615s-1.1647058-1.71794872-1.9058823-2.8974359c-.8205882-1.28205128.1058823-3.17948717 1.9058823-3.17948717 1.8264706 0 2.7264706 1.89743589 1.9058824 3.17948717-.7411765 1.20512821-1.9058824 2.8974359-1.9058824 2.8974359z" fill="#FF5500"/>
    <path d="m10.0058824 15.2307692-4.36764711-5.92307689s-1.16470588-1.71794872-1.90588235-2.8974359c-.82058823-1.28205128.10588235-3.17948718 1.90588235-3.17948718.2382353 0 .45.02564103.63529412.07692308l1.53529412-2.71794872c-.71470588-.28205128-1.45588235-.43589744-2.17058824-.43589744-1.85294117 0-3.89117647.92307693-4.95 3.05128206-1.21764706 2.43589743-.15882352 4.35897435.29117648 5l7.62352941 10.94871799c.05294117.1025641.55588235.7948717 1.35.7948717.82058822 0 1.27058822-.6666666 1.35000002-.7692307l2.3029412-3.3846154-1.9852942-2.8205128z" fill="#0292CD"/>
  </g>
</svg>
